HIERARCHY
ROOT Hips
{
	OFFSET -0.001795 -0.223333 0.028219
	CHANNELS 6 Xposition Yposition Zposition Zrotation Yrotation Xrotation 
	JOINT LeftUpLeg
	{
		OFFSET 0.069520 -0.091406 -0.006815
		CHANNELS 3 Zrotation Yrotation Xrotation
		JOINT LeftLeg
		{
			OFFSET 0.034277 -0.375199 -0.004496
			CHANNELS 3 Zrotation Yrotation Xrotation
			JOINT LeftFoot
			{
				OFFSET -0.013596 -0.397961 -0.043693
				CHANNELS 3 Zrotation Yrotation Xrotation
				JOINT LeftToe
				{
					OFFSET 0.026358 -0.055791 0.119288
					CHANNELS 3 Zrotation Yrotation Xrotation
					End Site
					{
						OFFSET 0.000000 0.000000 0.000000
					}
				}
			}
		}
	}
	JOINT RightUpLeg
	{
		OFFSET -0.067670 -0.090522 -0.004320
		CHANNELS 3 Zrotation Yrotation Xrotation
		JOINT RightLeg
		{
			OFFSET -0.038290 -0.382569 -0.008850
			CHANNELS 3 Zrotation Yrotation Xrotation
			JOINT RightFoot
			{
				OFFSET 0.015774 -0.398415 -0.042312
				CHANNELS 3 Zrotation Yrotation Xrotation
				JOINT RightToe
				{
					OFFSET -0.025372 -0.048144 0.123348
					CHANNELS 3 Zrotation Yrotation Xrotation
					End Site
					{
						OFFSET 0.000000 0.000000 0.000000
					}
				}
			}
		}
	}
	JOINT Spine
	{
		OFFSET -0.002533 0.108963 -0.026696
		CHANNELS 3 Zrotation Yrotation Xrotation
		JOINT Spine1
		{
			OFFSET 0.005487 0.135180 0.001092
			CHANNELS 3 Zrotation Yrotation Xrotation
			JOINT Spine2
			{
				OFFSET 0.001457 0.052922 0.025425
				CHANNELS 3 Zrotation Yrotation Xrotation
				JOINT Neck
				{
					OFFSET -0.002778 0.213870 -0.042857
					CHANNELS 3 Zrotation Yrotation Xrotation
					JOINT Head
					{
						OFFSET 0.005152 0.064970 0.051349
						CHANNELS 3 Zrotation Yrotation Xrotation
						End Site
						{
							OFFSET 0.000000 0.000000 0.000000
						}
					}
				}
				JOINT LeftShoulder
				{
					OFFSET 0.078845 0.121749 -0.034090
					CHANNELS 3 Zrotation Yrotation Xrotation
					JOINT LeftArm
					{
						OFFSET 0.090977 0.030469 -0.008868
						CHANNELS 3 Zrotation Yrotation Xrotation
						JOINT LeftForeArm
						{
							OFFSET 0.259612 -0.012772 -0.027456
							CHANNELS 3 Zrotation Yrotation Xrotation
							JOINT LeftHand
							{
								OFFSET 0.249234 0.008986 -0.001171
								CHANNELS 3 Zrotation Yrotation Xrotation
								End Site
								{
									OFFSET 0.000000 0.000000 0.000000
								}
							}
						}
					}
				}
				JOINT RightShoulder
				{
					OFFSET -0.081759 0.118833 -0.038615
					CHANNELS 3 Zrotation Yrotation Xrotation
					JOINT RightArm
					{
						OFFSET -0.096012 0.032551 -0.009143
						CHANNELS 3 Zrotation Yrotation Xrotation
						JOINT RightForeArm
						{
							OFFSET -0.253742 -0.013329 -0.021401
							CHANNELS 3 Zrotation Yrotation Xrotation
							JOINT RightHand
							{
								OFFSET -0.255298 0.007772 -0.005559
								CHANNELS 3 Zrotation Yrotation Xrotation
								End Site
								{
									OFFSET 0.000000 0.000000 0.000000
								}
							}
						}
					}
				}
			}
		}
	}
}
MOTION
Frames: 16
Frame Time: 0.050000
0.000000 0.938057 0.000000 -1.090321 -2.978562 -3.062422 5.542592 0.306867 6.371861 -4.533333 0.526569 -1.034440 10.071686 20.439862 11.210027 0.000000 0.000000 0.000000 -6.002203 0.080089 1.344875 4.516361 -0.449036 1.865860 -7.887088 -19.621285 9.722854 0.000000 0.000000 0.000000 6.400982 -0.439332 4.741874 -4.278484 1.630278 -22.407737 -0.854213 6.803484 29.879627 10.311768 -2.617978 -32.408041 0.000000 0.000000 0.000000 -21.685457 -9.386073 2.749487 -59.513670 1.013909 -10.191238 -15.194750 -32.088262 5.938866 0.000000 0.000000 0.000000 30.771507 -2.052001 -1.156678 64.175813 1.903706 -8.557328 4.944525 29.618669 3.300911 0.000000 0.000000 0.000000 
0.000164 0.937251 0.000550 -1.368402 -3.334949 -2.841226 5.639636 0.301862 6.281320 -4.216295 0.494365 -1.087728 10.770253 21.574200 10.009003 0.000000 0.000000 0.000000 -5.785590 0.115268 0.583161 4.320680 -0.416238 3.231174 -8.195689 -20.167682 8.969346 0.000000 0.000000 0.000000 7.015560 -0.470334 4.791738 -4.867430 1.779085 -22.235787 -0.978486 6.473352 29.403117 10.744946 -2.692235 -33.843341 0.000000 0.000000 0.000000 -21.165446 -8.655772 2.523636 -58.948385 1.113960 -10.167340 -17.396563 -33.768444 7.009624 0.000000 0.000000 0.000000 30.319495 -2.223521 -1.549049 64.928869 1.266920 -8.842073 5.562224 29.943267 3.452372 0.000000 0.000000 0.000000 
0.000290 0.936944 0.000701 -1.127713 -3.915427 -2.815194 5.479218 0.315560 6.136579 -4.781288 0.565908 -0.847265 11.606153 22.847413 10.680150 0.000000 0.000000 0.000000 -5.728484 0.137405 0.293273 3.715160 -0.332828 3.233805 -7.654159 -19.255364 10.056014 0.000000 0.000000 0.000000 7.083172 -0.467570 4.754446 -5.348157 1.899319 -22.058912 -0.929371 6.654650 29.182045 10.514177 -2.612253 -33.844355 0.000000 0.000000 0.000000 -20.347005 -9.617602 3.137418 -58.762064 0.663906 -9.917148 -19.512306 -34.524565 7.862159 0.000000 0.000000 0.000000 31.123789 -1.865604 -1.462384 62.904485 1.143867 -8.718914 5.827012 29.151067 3.334866 0.000000 0.000000 0.000000 
0.000288 0.936722 0.000671 -1.092743 -4.366646 -3.301072 5.102208 0.388212 6.849793 -4.538203 0.540623 -1.289181 12.419950 24.030129 11.605445 0.000000 0.000000 0.000000 -5.660945 0.133661 0.341827 3.571293 -0.307614 3.481653 -8.131295 -20.158340 10.739114 0.000000 0.000000 0.000000 7.163726 -0.514825 5.323848 -5.218150 1.854371 -22.338527 -1.385429 6.710477 29.245185 10.808654 -2.655173 -34.696863 0.000000 0.000000 0.000000 -20.524079 -10.498167 3.687005 -58.057606 0.754797 -9.830147 -22.302894 -38.421957 9.887227 0.000000 0.000000 0.000000 32.036363 -2.061638 -1.723308 62.307517 1.477654 -8.518882 5.935095 29.560500 3.426396 0.000000 0.000000 0.000000 
0.000222 0.936483 0.000291 -1.084594 -4.107809 -3.778113 5.181988 0.382912 6.823858 -4.388338 0.526335 -0.496912 12.290432 23.870290 11.233753 0.000000 0.000000 0.000000 -5.505740 0.110157 0.515249 3.300730 -0.267293 4.112885 -8.313201 -20.457632 10.492898 0.000000 0.000000 0.000000 6.886153 -0.553898 5.937524 -4.539544 1.692531 -21.514756 -1.990219 6.084492 28.126316 10.494123 -2.667158 -33.828024 0.000000 0.000000 0.000000 -20.524721 -10.451742 3.735196 -56.699149 0.450756 -9.363512 -29.442978 -44.335487 14.711489 0.000000 0.000000 0.000000 31.321265 -1.555118 -1.565339 61.465317 1.715358 -8.153322 6.523057 29.189259 3.434174 0.000000 0.000000 0.000000 
0.000110 0.936383 -0.000443 -1.281203 -3.901219 -4.290232 5.498455 0.401030 7.479921 -4.658443 0.551197 -1.127537 12.295129 23.876360 11.319492 0.000000 0.000000 0.000000 -5.252288 0.066585 1.029745 3.254568 -0.265825 4.017659 -8.415629 -20.636799 10.684925 0.000000 0.000000 0.000000 7.123894 -0.589968 6.300691 -4.290786 1.633208 -21.449248 -2.309809 6.192788 28.224433 10.553873 -2.663682 -33.805798 0.000000 0.000000 0.000000 -20.260997 -11.722631 4.348601 -55.527446 -2.403071 -7.873260 -37.408798 -51.666918 21.678388 0.000000 0.000000 0.000000 31.318876 -1.505297 -1.386695 60.529759 2.278065 -7.840754 6.222934 29.471457 3.414703 0.000000 0.000000 0.000000 
-0.000097 0.936195 -0.001577 -1.325010 -3.624391 -4.745188 5.294989 0.413377 7.520832 -4.193721 0.498587 -0.692560 12.218906 23.781932 11.065713 0.000000 0.000000 0.000000 -5.271345 0.049886 1.175135 3.466788 -0.285941 4.877996 -8.598194 -20.931030 9.922640 0.000000 0.000000 0.000000 7.185266 -0.643609 6.900867 -4.114052 1.602100 -20.689142 -2.780618 6.209283 27.518479 10.456312 -2.609866 -33.456370 0.000000 0.000000 0.000000 -20.064953 -12.461473 4.640238 -53.906390 -5.095345 -6.383684 -52.679710 -61.306738 36.571641 0.000000 0.000000 0.000000 30.975823 -0.812784 -0.797870 60.198030 2.927737 -7.447680 6.192617 30.070171 3.485651 0.000000 0.000000 0.000000 
-0.000472 0.936496 -0.003054 -1.581499 -2.843561 -4.994216 5.645236 0.377386 7.552574 -4.325595 0.507065 -0.481991 11.960706 23.439760 10.325771 0.000000 0.000000 0.000000 -4.830512 0.008068 1.422765 3.646719 -0.321105 4.946302 -9.282552 -22.128517 10.213624 0.000000 0.000000 0.000000 7.378213 -0.688405 7.243031 -4.350590 1.692210 -20.364444 -2.722766 6.157590 27.309501 9.684148 -2.321922 -32.257352 0.000000 0.000000 0.000000 -20.412173 -14.218609 5.439561 -52.341830 -11.085841 -3.574097 -70.151612 -69.350121 56.342870 0.000000 0.000000 0.000000 31.555703 -0.405155 -0.312533 58.847493 2.807914 -7.468336 6.718779 30.502104 3.691618 0.000000 0.000000 0.000000 
-0.000935 0.936565 -0.004407 -1.630491 -1.834694 -5.164666 5.533392 0.343652 7.192502 -3.835676 0.442416 -0.019121 11.631522 22.928105 10.125160 0.000000 0.000000 0.000000 -4.832907 -0.023298 1.703863 3.966182 -0.381195 4.953166 -9.859820 -23.135661 10.140991 0.000000 0.000000 0.000000 7.404319 -0.733345 7.628143 -4.533189 1.774147 -20.233225 -2.955204 5.872140 26.881787 8.822246 -1.886653 -31.674392 0.000000 0.000000 0.000000 -20.180054 -16.029129 6.275979 -51.381829 -19.087473 -0.019016 -99.199327 -76.819059 91.178834 0.000000 0.000000 0.000000 32.569085 0.362217 0.376949 57.997248 2.653159 -7.516720 5.939885 30.986651 3.555658 0.000000 0.000000 0.000000 
-0.001419 0.936838 -0.005302 -1.839632 -1.150933 -5.488407 5.928518 0.316929 7.460564 -3.942663 0.448589 0.015184 11.365720 22.528733 9.754294 0.000000 0.000000 0.000000 -4.593811 -0.065161 2.072412 4.238464 -0.432643 4.796372 -10.390239 -24.037419 10.603517 0.000000 0.000000 0.000000 7.636260 -0.789151 8.038402 -4.995484 1.925487 -20.261971 -2.705784 5.388839 26.821410 7.790527 -1.394325 -31.359238 0.000000 0.000000 0.000000 -19.595577 -17.819496 7.211579 -50.642954 -27.368135 3.565254 -149.100679 -78.683082 148.877616 0.000000 0.000000 0.000000 33.199836 1.323783 1.036682 56.735060 2.145573 -7.646284 5.620793 31.329039 3.466475 0.000000 0.000000 0.000000 
-0.001810 0.936652 -0.005519 -1.945412 -0.803136 -5.519644 6.019448 0.301535 7.458050 -3.763459 0.424944 0.074232 11.296307 22.425368 9.518658 0.000000 0.000000 0.000000 -4.740942 -0.076799 2.259470 4.494077 -0.476346 4.358817 -10.306703 -23.864154 10.946304 0.000000 0.000000 0.000000 7.569195 -0.803820 8.182145 -5.093380 1.954179 -20.574565 -2.489588 5.422069 27.035584 7.006683 -0.885663 -31.811772 0.000000 0.000000 0.000000 -18.867932 -19.015286 7.732288 -50.101073 -33.987520 6.436483 -176.584877 -72.546111 -177.679923 0.000000 0.000000 0.000000 33.676847 1.933374 1.615836 56.657375 1.710481 -7.904944 4.915058 31.456157 3.303065 0.000000 0.000000 0.000000 
-0.002021 0.936612 -0.005340 -2.073634 -1.009233 -5.727666 6.379650 0.302238 7.897751 -3.904717 0.442598 -0.225022 11.338539 22.487688 9.687935 0.000000 0.000000 0.000000 -4.679607 -0.109917 2.798182 4.484694 -0.473205 3.938770 -9.975871 -23.289851 11.020871 0.000000 0.000000 0.000000 7.939145 -0.830848 8.274104 -5.307754 2.014285 -20.426591 -2.460475 5.570951 26.871828 6.511768 -0.642880 -31.549125 0.000000 0.000000 0.000000 -18.670405 -19.765488 8.093453 -48.869059 -37.400013 7.732874 175.505466 -66.233913 -165.448468 0.000000 0.000000 0.000000 33.905938 2.481060 2.006713 56.545258 1.103884 -8.147799 4.855948 31.230174 3.227473 0.000000 0.000000 0.000000 
-0.002066 0.936265 -0.005104 -2.146769 -1.198071 -5.685266 6.482946 0.313258 8.263593 -4.013462 0.456144 -0.452404 11.751266 23.116852 10.019514 0.000000 0.000000 0.000000 -4.694461 -0.118677 3.011439 4.568343 -0.482630 3.406911 -9.547890 -22.546749 10.926537 0.000000 0.000000 0.000000 7.898941 -0.814742 8.158262 -5.226714 1.982859 -20.639573 -2.243416 5.872188 27.189996 6.767686 -0.728190 -31.755234 0.000000 0.000000 0.000000 -18.360279 -19.570712 7.933891 -48.467017 -37.260128 7.531193 176.194841 -60.527794 -165.068502 0.000000 0.000000 0.000000 33.810806 2.392021 2.029971 56.955585 0.413610 -8.542973 5.113662 31.258991 3.316532 0.000000 0.000000 0.000000 
-0.002002 0.936050 -0.004998 -2.248470 -1.738342 -5.556524 6.623957 0.313374 8.153711 -3.930996 0.451560 -0.541746 12.439953 24.131644 10.677127 0.000000 0.000000 0.000000 -4.548892 -0.108281 2.896439 4.567098 -0.475031 3.328971 -9.211235 -21.978437 10.395078 0.000000 0.000000 0.000000 8.194086 -0.807428 7.940678 -5.120579 1.937948 -20.686697 -2.133602 6.397816 27.215144 6.980745 -0.802770 -31.782161 0.000000 0.000000 0.000000 -19.268166 -18.483348 7.379284 -48.161934 -34.247443 6.151788 178.877462 -57.718614 -169.248098 0.000000 0.000000 0.000000 34.005309 2.084478 1.870018 57.216924 -0.243166 -8.890058 5.167620 30.967213 3.300005 0.000000 0.000000 0.000000 
-0.001839 0.935914 -0.004902 -2.268180 -2.402710 -5.267406 6.577441 0.330718 8.114435 -3.983371 0.462827 -0.696728 12.964852 24.891594 11.162205 0.000000 0.000000 0.000000 -4.413591 -0.077556 2.494798 4.489865 -0.455875 3.150705 -9.269385 -22.092660 10.639947 0.000000 0.000000 0.000000 8.644391 -0.780039 7.458849 -5.290563 1.965941 -20.720596 -1.907917 6.754995 27.506931 7.630081 -1.170642 -31.702248 0.000000 0.000000 0.000000 -20.462376 -16.614218 6.471435 -48.393263 -28.258224 3.619169 -178.091899 -57.802498 -174.693991 0.000000 0.000000 0.000000 34.161832 1.385797 1.326274 57.368448 -1.087515 -9.314727 6.037425 30.319124 3.445055 0.000000 0.000000 0.000000 
-0.001627 0.935245 -0.004547 -2.113199 -2.876854 -5.070430 6.209699 0.360993 7.994714 -3.885256 0.456096 -0.710176 13.495919 25.646691 11.608067 0.000000 0.000000 0.000000 -4.539327 -0.044913 2.173892 4.511992 -0.450921 3.421009 -9.084182 -21.778228 10.259532 0.000000 0.000000 0.000000 8.634811 -0.737422 7.087310 -5.241564 1.929702 -21.221651 -1.716186 7.024332 28.063394 8.534523 -1.658664 -31.797049 0.000000 0.000000 0.000000 -22.189940 -14.890151 5.605612 -48.762012 -20.212336 0.307333 -171.671257 -59.951675 174.018164 0.000000 0.000000 0.000000 34.102579 0.275640 0.476122 58.060232 -2.155462 -9.920923 6.643168 29.795876 3.548843 0.000000 0.000000 0.000000 
